%FSLAX43Y43*%
%MOMM*%
G71*
G01*
G75*
G04 Layer_Color=8421504*
%ADD10R,0.600X0.900*%
%ADD11R,0.700X0.700*%
%ADD12R,0.650X0.800*%
%ADD13R,0.650X0.500*%
%ADD14R,0.600X0.550*%
%ADD15R,0.500X0.650*%
%ADD16R,0.950X1.000*%
%ADD17R,2.800X0.750*%
%ADD18R,1.200X1.200*%
%ADD19R,0.550X0.600*%
%ADD20R,0.400X1.400*%
%ADD21R,2.300X1.900*%
%ADD22R,1.775X1.900*%
%ADD23R,1.100X1.000*%
%ADD24R,1.100X0.600*%
%ADD25R,1.000X2.250*%
%ADD26R,1.200X1.200*%
%ADD27R,0.900X0.600*%
%ADD28R,1.750X0.950*%
%ADD29R,1.000X0.950*%
%ADD30R,1.600X1.000*%
%ADD31R,2.500X3.000*%
%ADD32O,1.650X0.300*%
%ADD33O,0.300X1.650*%
%ADD34R,0.700X0.700*%
%ADD35R,0.800X0.650*%
%ADD36C,0.175*%
%ADD37C,0.200*%
%ADD38C,0.250*%
%ADD39C,0.300*%
%ADD40C,0.180*%
%ADD41C,0.125*%
%ADD42R,0.900X0.300*%
%ADD43C,1.700*%
%ADD44R,1.700X1.700*%
%ADD45R,1.700X1.700*%
%ADD46C,0.500*%
%ADD47C,3.600*%
%ADD48C,0.550*%
%ADD49C,0.400*%
%ADD50C,0.500*%
%ADD51C,1.400*%
G04:AMPARAMS|DCode=52|XSize=2.524mm|YSize=2.524mm|CornerRadius=0mm|HoleSize=0mm|Usage=FLASHONLY|Rotation=0.000|XOffset=0mm|YOffset=0mm|HoleType=Round|Shape=Relief|Width=0.254mm|Gap=0.254mm|Entries=4|*
%AMTHD52*
7,0,0,2.524,2.016,0.254,45*
%
%ADD52THD52*%
G04:AMPARAMS|DCode=53|XSize=4.224mm|YSize=4.224mm|CornerRadius=0mm|HoleSize=0mm|Usage=FLASHONLY|Rotation=0.000|XOffset=0mm|YOffset=0mm|HoleType=Round|Shape=Relief|Width=0.254mm|Gap=0.254mm|Entries=4|*
%AMTHD53*
7,0,0,4.224,3.716,0.254,45*
%
%ADD53THD53*%
%ADD54C,0.650*%
%ADD55C,0.600*%
%ADD56C,3.100*%
%ADD57C,1.270*%
%ADD58C,0.800*%
%ADD59R,0.500X0.250*%
%ADD60R,0.250X0.500*%
%ADD61R,1.300X0.600*%
%ADD62R,0.762X0.762*%
%ADD63R,0.950X1.750*%
%ADD64R,0.350X0.850*%
%ADD65C,0.280*%
%ADD66R,1.300X1.600*%
%ADD67R,0.600X0.250*%
%ADD68R,1.600X1.500*%
%ADD69R,0.300X0.500*%
%ADD70R,1.250X0.300*%
%ADD71R,0.850X0.400*%
%ADD72R,0.500X0.300*%
%ADD73R,0.200X0.325*%
%ADD74R,0.325X0.200*%
%ADD75C,0.254*%
%ADD76C,0.600*%
%ADD77C,0.100*%
%ADD78R,2.100X2.100*%
%ADD79R,2.100X2.100*%
%ADD80R,1.700X1.700*%
D10*
X-38775Y-50375D02*
D03*
Y-51475D02*
D03*
X-37500Y-58075D02*
D03*
Y-56975D02*
D03*
X-38600Y-58075D02*
D03*
Y-56975D02*
D03*
X-22600Y-54600D02*
D03*
Y-53500D02*
D03*
X-21500Y-54600D02*
D03*
Y-53500D02*
D03*
X-22550Y-61250D02*
D03*
Y-62350D02*
D03*
X-21450Y-61250D02*
D03*
Y-62350D02*
D03*
X-32950Y-49650D02*
D03*
Y-48550D02*
D03*
X-31843Y-49649D02*
D03*
Y-48549D02*
D03*
X-26900Y-49700D02*
D03*
Y-48600D02*
D03*
X-38775Y-54375D02*
D03*
Y-53275D02*
D03*
D11*
X-39750Y-58225D02*
D03*
Y-56825D02*
D03*
D12*
X-24950Y-35550D02*
D03*
Y-36750D02*
D03*
X-26825Y-35550D02*
D03*
Y-36750D02*
D03*
X-35675Y-12550D02*
D03*
Y-11350D02*
D03*
D13*
X-23125Y-10675D02*
D03*
X-24075D02*
D03*
D14*
X-23100Y-9800D02*
D03*
X-24100D02*
D03*
X-30150Y-9850D02*
D03*
X-31150D02*
D03*
D15*
X-11300Y-8625D02*
D03*
Y-9575D02*
D03*
X-12600Y-8625D02*
D03*
Y-9575D02*
D03*
X-18100Y-7375D02*
D03*
Y-6425D02*
D03*
D16*
X-30493Y-48299D02*
D03*
Y-49899D02*
D03*
D17*
X-56905Y-13335D02*
D03*
X-52845D02*
D03*
X-56905Y-14605D02*
D03*
X-52845D02*
D03*
X-56905Y-15875D02*
D03*
X-52845D02*
D03*
X-56905Y-17145D02*
D03*
X-52845D02*
D03*
X-56905Y-18415D02*
D03*
X-52845D02*
D03*
D18*
X-32050Y-12000D02*
D03*
X-34150D02*
D03*
X-53875Y-20975D02*
D03*
X-55975D02*
D03*
D19*
X-19000Y-6400D02*
D03*
Y-7400D02*
D03*
D20*
X-14300Y-5150D02*
D03*
X-14950D02*
D03*
X-15600D02*
D03*
X-16250D02*
D03*
X-16900D02*
D03*
D21*
X-11850Y-2300D02*
D03*
X-19350D02*
D03*
D22*
X-14438D02*
D03*
X-16763D02*
D03*
D23*
X-16400Y-7600D02*
D03*
D24*
Y-9300D02*
D03*
X-14300D02*
D03*
Y-7400D02*
D03*
D25*
X-24000Y-7650D02*
D03*
Y-2150D02*
D03*
X-28000D02*
D03*
Y-7650D02*
D03*
X-31000D02*
D03*
Y-2150D02*
D03*
X-35000D02*
D03*
Y-7650D02*
D03*
D26*
X-8750Y-3550D02*
D03*
Y-1450D02*
D03*
X-6500Y-3550D02*
D03*
Y-1450D02*
D03*
D27*
X-31700Y-66300D02*
D03*
X-30600D02*
D03*
X-31700Y-67400D02*
D03*
X-30600D02*
D03*
D28*
X-28625Y-46750D02*
D03*
Y-49700D02*
D03*
D30*
X-40475Y-52975D02*
D03*
Y-50375D02*
D03*
D31*
X-46725Y-51675D02*
D03*
D32*
X-35575Y-54250D02*
D03*
Y-54750D02*
D03*
Y-55250D02*
D03*
Y-55750D02*
D03*
Y-56250D02*
D03*
Y-56750D02*
D03*
Y-57250D02*
D03*
Y-57750D02*
D03*
Y-58250D02*
D03*
Y-58750D02*
D03*
Y-59250D02*
D03*
Y-59750D02*
D03*
Y-60250D02*
D03*
Y-60750D02*
D03*
Y-61250D02*
D03*
Y-61750D02*
D03*
X-24425D02*
D03*
Y-61250D02*
D03*
Y-60750D02*
D03*
Y-60250D02*
D03*
Y-59750D02*
D03*
Y-59250D02*
D03*
Y-58750D02*
D03*
Y-58250D02*
D03*
Y-57750D02*
D03*
Y-57250D02*
D03*
Y-56750D02*
D03*
Y-56250D02*
D03*
Y-55750D02*
D03*
Y-55250D02*
D03*
Y-54750D02*
D03*
Y-54250D02*
D03*
D33*
X-33750Y-63575D02*
D03*
X-33250D02*
D03*
X-32750D02*
D03*
X-32250D02*
D03*
X-31750D02*
D03*
X-31250D02*
D03*
X-30750D02*
D03*
X-30250D02*
D03*
X-29750D02*
D03*
X-29250D02*
D03*
X-28750D02*
D03*
X-28250D02*
D03*
X-27750D02*
D03*
X-27250D02*
D03*
X-26750D02*
D03*
X-26250D02*
D03*
Y-52425D02*
D03*
X-26750D02*
D03*
X-27250D02*
D03*
X-27750D02*
D03*
X-28250D02*
D03*
X-28750D02*
D03*
X-29250D02*
D03*
X-29750D02*
D03*
X-30250D02*
D03*
X-30750D02*
D03*
X-31250D02*
D03*
X-31750D02*
D03*
X-32250D02*
D03*
X-32750D02*
D03*
X-33250D02*
D03*
X-33750D02*
D03*
D34*
X-12600Y-7500D02*
D03*
X-11200D02*
D03*
D35*
X-21800Y-9900D02*
D03*
X-20600D02*
D03*
D78*
X-4430Y-74450D02*
D03*
X-6970D02*
D03*
X-4430Y-71910D02*
D03*
X-6970D02*
D03*
X-4430Y-69370D02*
D03*
X-6970D02*
D03*
X-4430Y-66830D02*
D03*
X-6970D02*
D03*
X-4430Y-64290D02*
D03*
X-6970Y-76990D02*
D03*
X-4430D02*
D03*
X-6970Y-79530D02*
D03*
X-4430D02*
D03*
X-6970Y-82070D02*
D03*
X-4430D02*
D03*
X-6970Y-84610D02*
D03*
X-4430D02*
D03*
X-6970Y-87150D02*
D03*
X-4430D02*
D03*
X-6970Y-64290D02*
D03*
X-4430Y-38890D02*
D03*
X-6970D02*
D03*
X-4430Y-36350D02*
D03*
X-6970D02*
D03*
X-4430Y-33810D02*
D03*
X-6970D02*
D03*
X-4430Y-31270D02*
D03*
X-6970D02*
D03*
X-4430Y-28730D02*
D03*
X-6970Y-41430D02*
D03*
X-4430D02*
D03*
X-6970Y-43970D02*
D03*
X-4430D02*
D03*
X-6970Y-46510D02*
D03*
X-4430D02*
D03*
X-6970Y-49050D02*
D03*
X-4430D02*
D03*
X-6970Y-51590D02*
D03*
X-4430D02*
D03*
X-6970Y-28730D02*
D03*
X-4430Y-16030D02*
D03*
X-6970D02*
D03*
X-4430Y-13490D02*
D03*
X-6970D02*
D03*
D79*
X-18570Y-93030D02*
D03*
X-41430Y-95570D02*
D03*
Y-93030D02*
D03*
X-38890Y-95570D02*
D03*
Y-93030D02*
D03*
X-36350Y-95570D02*
D03*
Y-93030D02*
D03*
X-33810Y-95570D02*
D03*
Y-93030D02*
D03*
X-31270Y-95570D02*
D03*
Y-93030D02*
D03*
X-18570Y-95570D02*
D03*
X-21110Y-93030D02*
D03*
Y-95570D02*
D03*
X-23650Y-93030D02*
D03*
Y-95570D02*
D03*
X-26190Y-93030D02*
D03*
Y-95570D02*
D03*
X-28730Y-93030D02*
D03*
Y-95570D02*
D03*
D80*
X-38730Y-10950D02*
D03*
X-41270D02*
D03*
M02*
