%FSLAX43Y43*%
%MOMM*%
G71*
G01*
G75*
G04 Layer_Color=16711935*
%ADD10R,0.600X0.900*%
%ADD11R,0.700X0.700*%
%ADD12R,0.650X0.800*%
%ADD13R,0.650X0.500*%
%ADD14R,0.600X0.550*%
%ADD15R,0.500X0.650*%
%ADD16R,0.950X1.000*%
%ADD17R,2.800X0.750*%
%ADD18R,1.200X1.200*%
%ADD19R,0.550X0.600*%
%ADD20R,0.400X1.400*%
%ADD21R,2.300X1.900*%
%ADD22R,1.775X1.900*%
%ADD23R,1.100X1.000*%
%ADD24R,1.100X0.600*%
%ADD25R,1.000X2.250*%
%ADD26R,1.200X1.200*%
%ADD27R,0.900X0.600*%
%ADD28R,1.750X0.950*%
%ADD29R,1.000X0.950*%
%ADD30R,1.600X1.000*%
%ADD31R,2.500X3.000*%
%ADD32O,1.650X0.300*%
%ADD33O,0.300X1.650*%
%ADD34R,0.700X0.700*%
%ADD35R,0.800X0.650*%
%ADD36C,0.175*%
%ADD37C,0.200*%
%ADD38C,0.250*%
%ADD39C,0.300*%
%ADD40C,0.180*%
%ADD41C,0.125*%
%ADD42R,0.900X0.300*%
%ADD43C,1.700*%
%ADD44R,1.700X1.700*%
%ADD45R,1.700X1.700*%
%ADD46C,0.500*%
%ADD47C,3.600*%
%ADD48C,0.550*%
%ADD49C,0.400*%
%ADD50C,0.500*%
%ADD51C,1.400*%
G04:AMPARAMS|DCode=52|XSize=2.524mm|YSize=2.524mm|CornerRadius=0mm|HoleSize=0mm|Usage=FLASHONLY|Rotation=0.000|XOffset=0mm|YOffset=0mm|HoleType=Round|Shape=Relief|Width=0.254mm|Gap=0.254mm|Entries=4|*
%AMTHD52*
7,0,0,2.524,2.016,0.254,45*
%
%ADD52THD52*%
G04:AMPARAMS|DCode=53|XSize=4.224mm|YSize=4.224mm|CornerRadius=0mm|HoleSize=0mm|Usage=FLASHONLY|Rotation=0.000|XOffset=0mm|YOffset=0mm|HoleType=Round|Shape=Relief|Width=0.254mm|Gap=0.254mm|Entries=4|*
%AMTHD53*
7,0,0,4.224,3.716,0.254,45*
%
%ADD53THD53*%
%ADD54C,0.650*%
%ADD55C,0.600*%
%ADD56C,3.100*%
%ADD57C,1.270*%
%ADD58C,0.800*%
%ADD59R,0.500X0.250*%
%ADD60R,0.250X0.500*%
%ADD61R,1.300X0.600*%
%ADD62R,0.762X0.762*%
%ADD63R,0.950X1.750*%
%ADD64R,0.350X0.850*%
%ADD65C,0.280*%
%ADD66R,1.300X1.600*%
%ADD67R,0.600X0.250*%
%ADD68R,1.600X1.500*%
%ADD69R,0.300X0.500*%
%ADD70R,1.250X0.300*%
%ADD71R,0.850X0.400*%
%ADD72R,0.500X0.300*%
%ADD73R,0.200X0.325*%
%ADD74R,0.325X0.200*%
%ADD75C,0.254*%
%ADD76C,0.600*%
%ADD77C,0.100*%
%ADD78R,2.100X2.100*%
%ADD79R,2.100X2.100*%
%ADD80R,1.700X1.700*%
%ADD81R,0.900X0.510*%
%ADD82R,0.700X1.000*%
%ADD83R,0.800X0.800*%
%ADD84R,0.750X0.900*%
%ADD85R,0.750X0.600*%
%ADD86R,0.700X0.650*%
%ADD87R,0.600X0.750*%
%ADD88R,1.050X1.100*%
%ADD89R,1.300X1.300*%
%ADD90R,0.650X0.700*%
%ADD91R,0.500X1.500*%
%ADD92R,2.400X2.000*%
%ADD93R,1.875X2.000*%
%ADD94R,1.200X1.100*%
%ADD95R,1.200X0.700*%
%ADD96R,1.100X2.350*%
%ADD97R,1.300X1.300*%
%ADD98R,1.000X0.700*%
%ADD99R,1.850X1.050*%
%ADD100R,1.100X1.050*%
%ADD101R,1.700X1.100*%
%ADD102R,2.600X3.100*%
%ADD103O,1.750X0.400*%
%ADD104O,0.400X1.750*%
%ADD105R,0.800X0.800*%
%ADD106R,0.900X0.750*%
%ADD107C,1.800*%
%ADD108R,1.800X1.800*%
%ADD109R,1.800X1.800*%
%ADD110C,3.700*%
%ADD111C,1.370*%
%ADD112C,0.900*%
%ADD113R,0.600X0.350*%
%ADD114R,0.350X0.600*%
%ADD115R,1.400X0.700*%
%ADD116R,0.862X0.862*%
%ADD117R,1.050X1.850*%
%ADD118R,0.450X0.950*%
%ADD119C,0.380*%
%ADD120R,1.400X1.700*%
%ADD121R,0.700X0.350*%
%ADD122R,1.700X1.600*%
%ADD123R,0.400X0.600*%
%ADD124R,1.350X0.400*%
%ADD125R,0.950X0.500*%
%ADD126R,0.600X0.400*%
%ADD127R,0.300X0.425*%
%ADD128R,0.425X0.300*%
D46*
X-54875Y-13970D02*
D03*
Y-17780D02*
D03*
D82*
X-39950Y-25925D02*
D03*
Y-27025D02*
D03*
X-52125Y-17225D02*
D03*
Y-18325D02*
D03*
D83*
Y-19725D02*
D03*
Y-21125D02*
D03*
D84*
X-36600Y-10950D02*
D03*
Y-12150D02*
D03*
X-35325Y-12150D02*
D03*
Y-10950D02*
D03*
X-17100Y-11700D02*
D03*
Y-10500D02*
D03*
X-11800Y-16100D02*
D03*
Y-14900D02*
D03*
X-5200Y-8600D02*
D03*
Y-9800D02*
D03*
X-1200Y-9800D02*
D03*
Y-8600D02*
D03*
X-27575Y-27275D02*
D03*
Y-28475D02*
D03*
X-22175Y-27300D02*
D03*
Y-28500D02*
D03*
X-20900Y-27300D02*
D03*
Y-28500D02*
D03*
X-19625Y-27300D02*
D03*
Y-28500D02*
D03*
X-18350Y-27300D02*
D03*
Y-28500D02*
D03*
X-30775Y-28475D02*
D03*
Y-27275D02*
D03*
X-57475Y-22075D02*
D03*
Y-20875D02*
D03*
X-45700Y-21200D02*
D03*
Y-22400D02*
D03*
X-46775Y-14475D02*
D03*
Y-13275D02*
D03*
X-43875Y-18350D02*
D03*
Y-17150D02*
D03*
D85*
X-31200Y-18900D02*
D03*
X-32150D02*
D03*
X-20275Y-21300D02*
D03*
X-19325D02*
D03*
X-25850Y-25500D02*
D03*
X-24900D02*
D03*
X-25850Y-26400D02*
D03*
X-24900D02*
D03*
X-25025Y-15100D02*
D03*
X-25975D02*
D03*
X-25025Y-16000D02*
D03*
X-25975D02*
D03*
X-23875D02*
D03*
X-22925D02*
D03*
X-23875Y-15100D02*
D03*
X-22925D02*
D03*
D87*
X-17800Y-17425D02*
D03*
Y-18375D02*
D03*
X-30000Y-21425D02*
D03*
Y-22375D02*
D03*
X-30875Y-21425D02*
D03*
Y-22375D02*
D03*
X-16900Y-19325D02*
D03*
Y-20275D02*
D03*
Y-22175D02*
D03*
Y-21225D02*
D03*
D88*
X-50625Y-22750D02*
D03*
Y-21150D02*
D03*
D90*
X-16900Y-17400D02*
D03*
Y-18400D02*
D03*
X-20300Y-16200D02*
D03*
Y-17200D02*
D03*
Y-19200D02*
D03*
Y-18200D02*
D03*
D98*
X-47115Y-19684D02*
D03*
X-48215D02*
D03*
X-56350Y-24725D02*
D03*
X-57450D02*
D03*
X-49350Y-28575D02*
D03*
X-48250D02*
D03*
X-54825Y-33800D02*
D03*
X-53725D02*
D03*
X-49375Y-35025D02*
D03*
X-48275D02*
D03*
X-49350Y-38675D02*
D03*
X-48250D02*
D03*
X-50175Y-30075D02*
D03*
X-49075D02*
D03*
X-54825Y-29050D02*
D03*
X-53725D02*
D03*
X-49350Y-33800D02*
D03*
X-48250D02*
D03*
X-49100Y-25075D02*
D03*
X-50200D02*
D03*
X-45625Y-19675D02*
D03*
X-44525D02*
D03*
X-49615Y-19684D02*
D03*
X-50715D02*
D03*
D105*
X-32775Y-20000D02*
D03*
X-31375D02*
D03*
X-57650Y-34625D02*
D03*
X-56250D02*
D03*
X-57650Y-29875D02*
D03*
X-56250D02*
D03*
D106*
X-4100Y-11100D02*
D03*
X-5300D02*
D03*
X-1600D02*
D03*
X-2800D02*
D03*
X-27475Y-3400D02*
D03*
X-26275D02*
D03*
X-32390Y-7665D02*
D03*
X-31190D02*
D03*
X-7000Y-26500D02*
D03*
X-5800D02*
D03*
X-7000Y-25200D02*
D03*
X-5800D02*
D03*
X-7000Y-23900D02*
D03*
X-5800D02*
D03*
X-31190Y-5165D02*
D03*
X-32390D02*
D03*
X-14000Y-8500D02*
D03*
X-12800D02*
D03*
X-56300Y-25850D02*
D03*
X-57500D02*
D03*
Y-31050D02*
D03*
X-56300D02*
D03*
Y-36950D02*
D03*
X-57500D02*
D03*
X-51175Y-37775D02*
D03*
X-52375D02*
D03*
X-57505Y-18415D02*
D03*
X-56305D02*
D03*
X-56300Y-35800D02*
D03*
X-57500D02*
D03*
X-48000Y-23825D02*
D03*
X-46800D02*
D03*
X-56305Y-17145D02*
D03*
X-57505D02*
D03*
X-57505Y-13335D02*
D03*
X-56305D02*
D03*
X-52375Y-27825D02*
D03*
X-51175D02*
D03*
X-57500Y-27000D02*
D03*
X-56300D02*
D03*
X-54875Y-27825D02*
D03*
X-53675D02*
D03*
X-44775Y-27650D02*
D03*
X-43575D02*
D03*
X-43575Y-26500D02*
D03*
X-44775D02*
D03*
X-47675Y-16600D02*
D03*
X-48875D02*
D03*
X-57500Y-32200D02*
D03*
X-56300D02*
D03*
X-52375Y-33025D02*
D03*
X-51175D02*
D03*
X-53675Y-37775D02*
D03*
X-54875D02*
D03*
X-30000Y-3400D02*
D03*
X-28800D02*
D03*
D107*
X-4430Y-74450D02*
D03*
Y-64290D02*
D03*
Y-66830D02*
D03*
X-6970D02*
D03*
X-4430Y-69370D02*
D03*
X-6970D02*
D03*
X-4430Y-71910D02*
D03*
X-6970D02*
D03*
Y-74450D02*
D03*
Y-87150D02*
D03*
Y-84610D02*
D03*
X-4430D02*
D03*
X-6970Y-82070D02*
D03*
X-4430D02*
D03*
X-6970Y-79530D02*
D03*
X-4430D02*
D03*
Y-76990D02*
D03*
X-6970D02*
D03*
X-4430Y-87150D02*
D03*
X-41430Y-95570D02*
D03*
X-31270Y-93030D02*
D03*
Y-95570D02*
D03*
X-33810D02*
D03*
Y-93030D02*
D03*
X-36350Y-95570D02*
D03*
Y-93030D02*
D03*
X-38890Y-95570D02*
D03*
Y-93030D02*
D03*
X-41430D02*
D03*
X-28730D02*
D03*
X-26190D02*
D03*
Y-95570D02*
D03*
X-23650Y-93030D02*
D03*
Y-95570D02*
D03*
X-21110Y-93030D02*
D03*
Y-95570D02*
D03*
X-18570D02*
D03*
X-28730D02*
D03*
X-4430Y-38890D02*
D03*
Y-28730D02*
D03*
Y-31270D02*
D03*
X-6970D02*
D03*
X-4430Y-33810D02*
D03*
X-6970D02*
D03*
X-4430Y-36350D02*
D03*
X-6970D02*
D03*
Y-38890D02*
D03*
Y-51590D02*
D03*
Y-49050D02*
D03*
X-4430D02*
D03*
X-6970Y-46510D02*
D03*
X-4430D02*
D03*
X-6970Y-43970D02*
D03*
X-4430D02*
D03*
Y-41430D02*
D03*
X-6970D02*
D03*
X-4430Y-51590D02*
D03*
Y-13490D02*
D03*
Y-16030D02*
D03*
X-6970D02*
D03*
X-41270Y-10950D02*
D03*
X-38730D02*
D03*
D108*
X-6970Y-64290D02*
D03*
Y-28730D02*
D03*
Y-13490D02*
D03*
D109*
X-18570Y-93030D02*
D03*
D110*
X-57650Y-97650D02*
D03*
X-2350D02*
D03*
X-57650Y-2350D02*
D03*
X-2350D02*
D03*
D111*
X-33000Y-1500D02*
D03*
X-26000D02*
D03*
X-38600Y-7500D02*
D03*
Y-5500D02*
D03*
Y-3500D02*
D03*
Y-1500D02*
D03*
X-41600Y-7500D02*
D03*
Y-5500D02*
D03*
Y-3500D02*
D03*
Y-1500D02*
D03*
D112*
X-46050Y-29300D02*
D03*
X-31200Y-3425D02*
D03*
X-56125Y-28200D02*
D03*
X-28800Y-2350D02*
D03*
X-18200Y-11700D02*
D03*
X-42325Y-27650D02*
D03*
X-44450Y-22400D02*
D03*
X-45675Y-13275D02*
D03*
X-48325Y-17775D02*
D03*
X-58670Y-17145D02*
D03*
X-51175Y-29025D02*
D03*
X-50600Y-31175D02*
D03*
X-50600Y-35925D02*
D03*
X-51800Y-34150D02*
D03*
X-51175Y-39025D02*
D03*
X-56300Y-38200D02*
D03*
X-56250Y-33500D02*
D03*
X-57600D02*
D03*
X-57375Y-28675D02*
D03*
X-58625Y-28075D02*
D03*
X-57475Y-23325D02*
D03*
X-52150Y-24000D02*
D03*
X-53775Y-15175D02*
D03*
X-2575Y-6550D02*
D03*
X-4100Y-12025D02*
D03*
X-10475Y-14900D02*
D03*
X-25050Y-14175D02*
D03*
X-18150Y-16250D02*
D03*
X-25600Y-64800D02*
D03*
X-28518Y-27757D02*
D03*
X-29100Y-25525D02*
D03*
X-29175Y-48625D02*
D03*
X-25000Y-29525D02*
D03*
X-40725Y-58225D02*
D03*
X-34175Y-10900D02*
D03*
X-13350Y-7500D02*
D03*
X-29850Y-20250D02*
D03*
X-13725Y-3875D02*
D03*
X-2800Y-12150D02*
D03*
X-6350Y-10050D02*
D03*
Y-8750D02*
D03*
X-1200Y-7250D02*
D03*
X-16675Y-15900D02*
D03*
X-22175Y-26200D02*
D03*
X-20900Y-26200D02*
D03*
X-19625D02*
D03*
X-27575Y-26175D02*
D03*
X-30775Y-26175D02*
D03*
X-18350Y-26200D02*
D03*
X-58650Y-25850D02*
D03*
X-58600Y-20875D02*
D03*
X-51115Y-18415D02*
D03*
X-58665Y-13335D02*
D03*
X-46025Y-27225D02*
D03*
X-54875Y-16700D02*
D03*
Y-18900D02*
D03*
X-39650Y-23600D02*
D03*
X-39425Y-17225D02*
D03*
X-35650Y-24325D02*
D03*
X-24850Y-32950D02*
D03*
X-57775Y-19525D02*
D03*
X-23550Y-37175D02*
D03*
X-20500Y-13100D02*
D03*
X-29825Y-38800D02*
D03*
X-34925Y-36425D02*
D03*
X-34350Y-32225D02*
D03*
X-27575Y-29550D02*
D03*
D113*
X-50275Y-18075D02*
D03*
Y-17425D02*
D03*
D114*
X-56525Y-15850D02*
D03*
X-55875D02*
D03*
X-57200Y-12225D02*
D03*
X-57850D02*
D03*
X-56600Y-19500D02*
D03*
X-55950D02*
D03*
D115*
X-13450Y-11450D02*
D03*
X-15550Y-10500D02*
D03*
Y-12400D02*
D03*
Y-15000D02*
D03*
X-13450Y-15950D02*
D03*
Y-14050D02*
D03*
X-9350Y-12400D02*
D03*
X-11450Y-11450D02*
D03*
Y-13350D02*
D03*
X-22250Y-4725D02*
D03*
X-20150Y-5675D02*
D03*
Y-3775D02*
D03*
X-53800Y-20875D02*
D03*
Y-22775D02*
D03*
X-55900Y-21825D02*
D03*
D116*
X-24425Y-5699D02*
D03*
Y-4301D02*
D03*
D117*
X-25875Y-7975D02*
D03*
X-28825D02*
D03*
D118*
X-3875Y-9725D02*
D03*
X-3225D02*
D03*
X-2575D02*
D03*
Y-7875D02*
D03*
X-3225D02*
D03*
X-3875D02*
D03*
X-48225Y-15175D02*
D03*
X-48875D02*
D03*
X-49525D02*
D03*
Y-13325D02*
D03*
X-48875D02*
D03*
X-48225D02*
D03*
D119*
X-22100Y-23700D02*
D03*
Y-23050D02*
D03*
Y-22400D02*
D03*
Y-21750D02*
D03*
Y-20450D02*
D03*
Y-19800D02*
D03*
Y-19150D02*
D03*
Y-21100D02*
D03*
X-22750D02*
D03*
X-23400D02*
D03*
X-24050D02*
D03*
X-24700D02*
D03*
X-25350D02*
D03*
X-26000D02*
D03*
X-26650D02*
D03*
X-27300D02*
D03*
X-27950D02*
D03*
X-22750Y-23700D02*
D03*
X-23400D02*
D03*
X-24050D02*
D03*
X-24700D02*
D03*
X-25350D02*
D03*
X-26000D02*
D03*
X-26650D02*
D03*
X-27300D02*
D03*
X-27950D02*
D03*
X-22750Y-23050D02*
D03*
X-23400D02*
D03*
X-24050D02*
D03*
X-24700D02*
D03*
X-25350D02*
D03*
X-26000D02*
D03*
X-26650D02*
D03*
X-27300D02*
D03*
X-27950D02*
D03*
X-22750Y-22400D02*
D03*
X-23400D02*
D03*
X-24050D02*
D03*
X-24700D02*
D03*
X-25350D02*
D03*
X-26000D02*
D03*
X-26650D02*
D03*
X-27300D02*
D03*
X-27950D02*
D03*
X-22750Y-21750D02*
D03*
X-23400D02*
D03*
X-24050D02*
D03*
X-24700D02*
D03*
X-25350D02*
D03*
X-26000D02*
D03*
X-26650D02*
D03*
X-27300D02*
D03*
X-27950D02*
D03*
X-22750Y-20450D02*
D03*
X-23400D02*
D03*
X-24050D02*
D03*
X-24700D02*
D03*
X-25350D02*
D03*
X-26000D02*
D03*
X-26650D02*
D03*
X-27300D02*
D03*
X-27950D02*
D03*
X-22750Y-19800D02*
D03*
X-23400D02*
D03*
X-24050D02*
D03*
X-24700D02*
D03*
X-25350D02*
D03*
X-26000D02*
D03*
X-26650D02*
D03*
X-27300D02*
D03*
X-27950D02*
D03*
X-22750Y-19150D02*
D03*
X-23400D02*
D03*
X-24050D02*
D03*
X-24700D02*
D03*
X-25350D02*
D03*
X-26000D02*
D03*
X-26650D02*
D03*
X-27300D02*
D03*
X-27950D02*
D03*
X-22100Y-18500D02*
D03*
X-22750D02*
D03*
X-23400D02*
D03*
X-24050D02*
D03*
X-24700D02*
D03*
X-25350D02*
D03*
X-26000D02*
D03*
X-26650D02*
D03*
X-27300D02*
D03*
X-27950D02*
D03*
X-22100Y-17850D02*
D03*
X-22750D02*
D03*
X-23400D02*
D03*
X-24050D02*
D03*
X-24700D02*
D03*
X-25350D02*
D03*
X-26000D02*
D03*
X-26650D02*
D03*
X-27300D02*
D03*
X-27950D02*
D03*
D120*
X-15400Y-22150D02*
D03*
Y-18350D02*
D03*
X-13100D02*
D03*
Y-22150D02*
D03*
D121*
X-28825Y-4650D02*
D03*
Y-5150D02*
D03*
Y-6150D02*
D03*
Y-5650D02*
D03*
X-26025D02*
D03*
Y-6150D02*
D03*
Y-5150D02*
D03*
Y-4650D02*
D03*
D122*
X-27425Y-5400D02*
D03*
D123*
X-49850Y-27200D02*
D03*
X-49350D02*
D03*
X-48850D02*
D03*
Y-26450D02*
D03*
X-49350D02*
D03*
X-49850D02*
D03*
X-49500Y-37175D02*
D03*
X-49000D02*
D03*
X-48500D02*
D03*
Y-36425D02*
D03*
X-49000D02*
D03*
X-49500D02*
D03*
X-49525Y-32425D02*
D03*
X-49025D02*
D03*
X-48525D02*
D03*
Y-31675D02*
D03*
X-49025D02*
D03*
X-49525D02*
D03*
X-46125Y-18275D02*
D03*
X-45625D02*
D03*
X-45125D02*
D03*
Y-17525D02*
D03*
X-45625D02*
D03*
X-46125D02*
D03*
D124*
X-52000Y-25075D02*
D03*
Y-25575D02*
D03*
Y-26075D02*
D03*
Y-26575D02*
D03*
X-54650Y-25075D02*
D03*
Y-25575D02*
D03*
Y-26075D02*
D03*
Y-26575D02*
D03*
X-52000Y-35025D02*
D03*
Y-35525D02*
D03*
Y-36025D02*
D03*
Y-36525D02*
D03*
X-54650Y-35025D02*
D03*
Y-35525D02*
D03*
Y-36025D02*
D03*
Y-36525D02*
D03*
X-52000Y-30275D02*
D03*
Y-30775D02*
D03*
Y-31275D02*
D03*
Y-31775D02*
D03*
X-54650Y-30275D02*
D03*
Y-30775D02*
D03*
Y-31275D02*
D03*
Y-31775D02*
D03*
D125*
X-47100Y-21100D02*
D03*
Y-21750D02*
D03*
Y-22400D02*
D03*
X-49000D02*
D03*
Y-21100D02*
D03*
D126*
X-41325Y-26425D02*
D03*
Y-25925D02*
D03*
Y-25425D02*
D03*
X-42075D02*
D03*
Y-25925D02*
D03*
Y-26425D02*
D03*
D127*
X-50275Y-17263D02*
D03*
X-50275Y-18237D02*
D03*
D128*
X-55713Y-15850D02*
D03*
X-56687D02*
D03*
X-58012Y-12225D02*
D03*
X-57038D02*
D03*
X-55788Y-19500D02*
D03*
X-56762D02*
D03*
M02*
