%FSLAX43Y43*%
%MOMM*%
G71*
G01*
G75*
G04 Layer_Physical_Order=2*
G04 Layer_Color=32768*
%ADD10R,0.600X0.900*%
%ADD11R,0.700X0.700*%
%ADD12R,0.650X0.800*%
%ADD13R,0.650X0.500*%
%ADD14R,0.600X0.550*%
%ADD15R,0.500X0.650*%
%ADD16R,0.950X1.000*%
%ADD17R,2.800X0.750*%
%ADD18R,1.200X1.200*%
%ADD19R,0.550X0.600*%
%ADD20R,0.400X1.400*%
%ADD21R,2.300X1.900*%
%ADD22R,1.775X1.900*%
%ADD23R,1.100X1.000*%
%ADD24R,1.100X0.600*%
%ADD25R,1.000X2.250*%
%ADD26R,1.200X1.200*%
%ADD27R,0.900X0.600*%
%ADD28R,1.750X0.950*%
%ADD29R,1.000X0.950*%
%ADD30R,1.600X1.000*%
%ADD31R,2.500X3.000*%
%ADD32O,1.650X0.300*%
%ADD33O,0.300X1.650*%
%ADD34R,0.700X0.700*%
%ADD35R,0.800X0.650*%
%ADD36C,0.175*%
%ADD37C,0.200*%
%ADD38C,0.250*%
%ADD39C,0.300*%
%ADD40C,0.180*%
%ADD41C,0.125*%
%ADD42R,0.900X0.300*%
%ADD43C,1.700*%
%ADD44R,1.700X1.700*%
%ADD45R,1.700X1.700*%
%ADD46C,0.500*%
%ADD47C,3.600*%
%ADD48C,0.550*%
%ADD49C,0.400*%
%ADD50C,0.500*%
%ADD51C,1.400*%
G04:AMPARAMS|DCode=52|XSize=2.524mm|YSize=2.524mm|CornerRadius=0mm|HoleSize=0mm|Usage=FLASHONLY|Rotation=0.000|XOffset=0mm|YOffset=0mm|HoleType=Round|Shape=Relief|Width=0.254mm|Gap=0.254mm|Entries=4|*
%AMTHD52*
7,0,0,2.524,2.016,0.254,45*
%
%ADD52THD52*%
G04:AMPARAMS|DCode=53|XSize=4.224mm|YSize=4.224mm|CornerRadius=0mm|HoleSize=0mm|Usage=FLASHONLY|Rotation=0.000|XOffset=0mm|YOffset=0mm|HoleType=Round|Shape=Relief|Width=0.254mm|Gap=0.254mm|Entries=4|*
%AMTHD53*
7,0,0,4.224,3.716,0.254,45*
%
%ADD53THD53*%
%ADD54C,0.650*%
%ADD55C,0.600*%
D50*
X-10600Y-350D02*
G03*
X-9825Y-1I0J1036D01*
G01*
X-21375D02*
G03*
X-20600Y-350I776J686D01*
G01*
X-60000Y-100000D02*
X0D01*
Y0D01*
X-9825D02*
X0D01*
X-9825Y-1D02*
Y0D01*
X-10600Y-350D02*
Y-350D01*
X-20600Y-350D02*
X-10600D01*
X-21375Y-1D02*
Y0D01*
X-60000D02*
X-21375D01*
X-60000Y-100000D02*
Y0D01*
D51*
X-4430Y-74450D02*
D03*
Y-66830D02*
D03*
X-6970D02*
D03*
X-4430Y-69370D02*
D03*
X-6970D02*
D03*
X-4430Y-71910D02*
D03*
X-6970D02*
D03*
Y-74450D02*
D03*
Y-84610D02*
D03*
X-4430D02*
D03*
X-6970Y-82070D02*
D03*
X-4430D02*
D03*
X-6970Y-79530D02*
D03*
X-4430D02*
D03*
Y-76990D02*
D03*
X-6970D02*
D03*
X-4430Y-87150D02*
D03*
X-6970Y-64290D02*
D03*
X-18570Y-93030D02*
D03*
X-41430Y-95570D02*
D03*
X-31270Y-93030D02*
D03*
Y-95570D02*
D03*
X-33810D02*
D03*
Y-93030D02*
D03*
X-36350Y-95570D02*
D03*
Y-93030D02*
D03*
X-38890Y-95570D02*
D03*
Y-93030D02*
D03*
X-28730D02*
D03*
X-26190D02*
D03*
Y-95570D02*
D03*
X-23650Y-93030D02*
D03*
Y-95570D02*
D03*
X-21110Y-93030D02*
D03*
Y-95570D02*
D03*
X-28730D02*
D03*
X-4430Y-38890D02*
D03*
Y-31270D02*
D03*
X-6970D02*
D03*
X-4430Y-33810D02*
D03*
X-6970D02*
D03*
X-4430Y-36350D02*
D03*
X-6970D02*
D03*
Y-38890D02*
D03*
Y-49050D02*
D03*
X-4430D02*
D03*
X-6970Y-46510D02*
D03*
X-4430D02*
D03*
X-6970Y-43970D02*
D03*
X-4430D02*
D03*
Y-41430D02*
D03*
X-6970D02*
D03*
X-4430Y-51590D02*
D03*
X-6970Y-28730D02*
D03*
X-4430Y-16030D02*
D03*
X-6970D02*
D03*
Y-13490D02*
D03*
X-54875Y-13970D02*
D03*
Y-17780D02*
D03*
X-41270Y-10950D02*
D03*
X-38730D02*
D03*
D52*
X-4430Y-64290D02*
D03*
X-6970Y-87150D02*
D03*
X-41430Y-93030D02*
D03*
X-18570Y-95570D02*
D03*
X-4430Y-28730D02*
D03*
X-6970Y-51590D02*
D03*
X-4430Y-13490D02*
D03*
D53*
X-57650Y-97650D02*
D03*
X-2350D02*
D03*
X-57650Y-2350D02*
D03*
X-2350D02*
D03*
D54*
X-33750Y-89225D02*
D03*
X-29125Y-90512D02*
D03*
X-29638Y-91262D02*
D03*
X-27425Y-84550D02*
D03*
X-32175D02*
D03*
X-27975Y-83850D02*
D03*
X-32900D02*
D03*
X-18875Y-42575D02*
D03*
X-18350Y-41975D02*
D03*
X-44075Y-64800D02*
D03*
X-43350Y-63575D02*
D03*
X-25600Y-64800D02*
D03*
X-25575Y-63575D02*
D03*
X-33200Y-56250D02*
D03*
X-28518Y-27757D02*
D03*
X-29100Y-25525D02*
D03*
X-25862Y-48037D02*
D03*
X-30675Y-75725D02*
D03*
X-22425Y-71400D02*
D03*
X-37575D02*
D03*
X-36725Y-52200D02*
D03*
X-33875Y-58750D02*
D03*
X-26625Y-73225D02*
D03*
X-21750Y-72650D02*
D03*
X-28575Y-78275D02*
D03*
X-33050Y-26575D02*
D03*
X-32350Y-26950D02*
D03*
X-27725Y-50850D02*
D03*
X-27950Y-79530D02*
D03*
X-16600Y-72025D02*
D03*
X-17225Y-70800D02*
D03*
X-27350Y-74450D02*
D03*
X-27750Y-53650D02*
D03*
X-29750Y-50642D02*
D03*
X-29175Y-48625D02*
D03*
X-32250Y-54250D02*
D03*
X-32750Y-54750D02*
D03*
X-33250Y-55250D02*
D03*
X-33750Y-55750D02*
D03*
X-36850Y-60750D02*
D03*
X-31700Y-68200D02*
D03*
X-35550Y-17225D02*
D03*
X-25000Y-29525D02*
D03*
X-17025Y-25100D02*
D03*
X-40725Y-58225D02*
D03*
X-34175Y-10900D02*
D03*
X-13350Y-7500D02*
D03*
X-29850Y-20250D02*
D03*
X-34350Y-56750D02*
D03*
X-30800Y-29350D02*
D03*
X-40675Y-56825D02*
D03*
X-20625Y-53500D02*
D03*
X-20575Y-61250D02*
D03*
X-23875Y-14450D02*
D03*
X-13725Y-3875D02*
D03*
X-33900Y-20000D02*
D03*
X-4550Y-9800D02*
D03*
X-33290Y-7665D02*
D03*
X-32390Y-8465D02*
D03*
Y-6865D02*
D03*
Y-5865D02*
D03*
X-33190Y-5165D02*
D03*
X-32390Y-4465D02*
D03*
X-4900Y-25200D02*
D03*
Y-26500D02*
D03*
X-7600Y-1518D02*
D03*
X-11200Y-6725D02*
D03*
X-10800Y-5675D02*
D03*
X-4900Y-23900D02*
D03*
X-24925Y-1500D02*
D03*
X-30075Y-1525D02*
D03*
X-10325Y-11450D02*
D03*
X-2800Y-12150D02*
D03*
X-6350Y-10050D02*
D03*
Y-8750D02*
D03*
X-1200Y-7250D02*
D03*
X-18025Y-9575D02*
D03*
X-16675Y-15900D02*
D03*
X-22175Y-26200D02*
D03*
X-20900Y-26200D02*
D03*
X-19625D02*
D03*
X-27575Y-26175D02*
D03*
X-30775Y-26175D02*
D03*
X-18350Y-26200D02*
D03*
X-18525Y-22075D02*
D03*
X-53125Y-19700D02*
D03*
X-58650Y-25850D02*
D03*
X-58600Y-20875D02*
D03*
X-54650Y-29725D02*
D03*
X-58475Y-31050D02*
D03*
X-58475Y-35800D02*
D03*
X-54650Y-34475D02*
D03*
X-51115Y-18415D02*
D03*
X-49000Y-23475D02*
D03*
X-58665Y-13335D02*
D03*
X-50400Y-32425D02*
D03*
X-46900Y-18275D02*
D03*
X-54650Y-32425D02*
D03*
X-50400Y-27200D02*
D03*
X-47975Y-26450D02*
D03*
X-58525Y-34625D02*
D03*
X-47100Y-20400D02*
D03*
X-50200Y-23925D02*
D03*
X-50300Y-28575D02*
D03*
X-45625Y-18975D02*
D03*
X-45700Y-20375D02*
D03*
X-46775Y-15750D02*
D03*
X-46025Y-27225D02*
D03*
X-54875Y-16700D02*
D03*
Y-18900D02*
D03*
X-29350Y-16075D02*
D03*
X-34700Y-14200D02*
D03*
X-34250Y-15175D02*
D03*
X-39650Y-23600D02*
D03*
X-36600Y-13075D02*
D03*
X-39425Y-17225D02*
D03*
X-35650Y-24325D02*
D03*
X-29675Y-13100D02*
D03*
X-29825Y-27975D02*
D03*
X-24850Y-32950D02*
D03*
X-34625Y-25050D02*
D03*
X-36875Y-61750D02*
D03*
X-36850Y-59750D02*
D03*
X-36800Y-58750D02*
D03*
X-57775Y-19525D02*
D03*
X-50225Y-33800D02*
D03*
X-50400Y-37175D02*
D03*
X-49000Y-37975D02*
D03*
X-23550Y-37175D02*
D03*
X-20500Y-13100D02*
D03*
X-29825Y-38800D02*
D03*
X-15400Y-59675D02*
D03*
X-12250D02*
D03*
X-16000Y-60325D02*
D03*
X-12800D02*
D03*
X-26825Y-34575D02*
D03*
X-24950D02*
D03*
X-34925Y-36425D02*
D03*
X-34350Y-32225D02*
D03*
X-38890Y-70800D02*
D03*
X-36350Y-72025D02*
D03*
X-35250Y-72650D02*
D03*
X-31270Y-77000D02*
D03*
X-27575Y-29550D02*
D03*
X-33300Y-66825D02*
D03*
X-32727Y-66303D02*
D03*
X-33502Y-57278D02*
D03*
X-34350Y-60250D02*
D03*
X-33000Y-59755D02*
D03*
D55*
X-25675Y-18175D02*
D03*
X-25025D02*
D03*
X-29325Y-22150D02*
D03*
X-19150Y-17400D02*
D03*
X-25025Y-20125D02*
D03*
X-26550Y-25500D02*
D03*
X-29350Y-21425D02*
D03*
X-21100Y-21425D02*
D03*
X-23725Y-18825D02*
D03*
X-23625Y-17250D02*
D03*
Y-16625D02*
D03*
X-25025Y-21425D02*
D03*
X-25025Y-19475D02*
D03*
X-26325Y-20125D02*
D03*
X-25675D02*
D03*
X-24375Y-20775D02*
D03*
X-23075Y-21425D02*
D03*
X-19600Y-18200D02*
D03*
X-35875Y-8725D02*
D03*
X-25025Y-22075D02*
D03*
M02*
